<svg width="146" height="150" viewBox="0 0 146 150" fill="none" xmlns="http://www.w3.org/2000/svg">
<rect width="145.195" height="150" rx="72.5975" fill="#C6E2B8"/>
<path d="M27.3061 84.2196C27.2269 83.8492 27.226 83.5212 27.3042 83.2384C27.3824 82.9547 27.5172 82.7144 27.7076 82.5174C27.8989 82.3204 28.127 82.1573 28.3947 82.0301C28.6624 81.9019 28.9461 81.8058 29.2458 81.7426L31.6116 81.2402L31.7077 81.6964L29.3429 82.1979C29.0997 82.2497 28.8679 82.3251 28.6445 82.426C28.422 82.5259 28.2298 82.6531 28.0686 82.8067C27.9083 82.9613 27.7943 83.1461 27.7274 83.3628C27.6614 83.5796 27.6586 83.8332 27.7198 84.1244C27.7839 84.4241 27.8933 84.6598 28.0469 84.8323C28.2005 85.0038 28.3824 85.1273 28.5907 85.1998C28.8 85.2724 29.0253 85.3092 29.2675 85.3082C29.5088 85.3073 29.7482 85.2818 29.9857 85.2319L32.3524 84.7295L32.4504 85.1914L30.0837 85.6947C29.7717 85.7607 29.4645 85.7889 29.1629 85.7795C28.8622 85.7701 28.586 85.7098 28.3372 85.5985C28.0884 85.4883 27.8725 85.3214 27.6925 85.0971C27.5106 84.8728 27.3824 84.5806 27.3061 84.2196Z" fill="#404040"/>
<path d="M32.8912 86.6808L31.4293 88.8439L33.9119 89.6385L34.0863 90.1427L31.1871 89.1992L29.5339 91.6555L29.3604 91.1522L30.778 89.0682L28.3745 88.2972L28.1992 87.7864L31.0155 88.7006L32.7159 86.1699L32.8912 86.6808Z" fill="#404040"/>
<path d="M30.1211 92.9626L30.7281 92.6978L30.8874 93.0635L30.2804 93.3274L30.1211 92.9626Z" fill="#404040"/>
<path d="M31.9895 96.871C31.8076 96.5383 31.7143 96.2263 31.7077 95.9322C31.7001 95.6381 31.7595 95.3686 31.8868 95.1254C32.0121 94.8822 32.1855 94.6607 32.4042 94.4609C32.6238 94.262 32.8679 94.0886 33.1366 93.9416L35.2591 92.7822L35.4835 93.1913L33.3599 94.3506C33.1432 94.4694 32.9414 94.6089 32.7577 94.7691C32.5729 94.9284 32.4249 95.1056 32.3156 95.2988C32.2053 95.492 32.1497 95.7022 32.1488 95.9294C32.1469 96.1565 32.2176 96.4006 32.3599 96.6617C32.506 96.9294 32.6785 97.1236 32.8755 97.2452C33.0725 97.3658 33.2808 97.4308 33.5013 97.4412C33.7228 97.4516 33.95 97.4214 34.1809 97.3517C34.4118 97.2819 34.6342 97.1886 34.8482 97.0717L36.9699 95.9115L37.197 96.3262L35.0744 97.4874C34.7945 97.6401 34.5079 97.7551 34.2158 97.8324C33.9255 97.9096 33.6436 97.9313 33.3741 97.8965C33.1036 97.8625 32.8491 97.7636 32.6116 97.6005C32.374 97.4384 32.1657 97.1943 31.9895 96.871Z" fill="#404040"/>
<path d="M34.1484 100.37L38.1231 97.6846L38.388 98.0767L34.4123 100.762L34.1484 100.37Z" fill="#404040"/>
<path d="M37.2383 104.533L40.7785 101.295L41.8765 102.497C42.2215 102.873 42.4279 103.258 42.4995 103.653C42.5712 104.048 42.5306 104.432 42.3798 104.802C42.2271 105.173 41.9877 105.508 41.6616 105.806C41.3034 106.134 40.9283 106.351 40.5362 106.455C40.1432 106.561 39.7577 106.554 39.3797 106.433C39.0018 106.313 38.653 106.079 38.3373 105.733L37.2383 104.533ZM41.343 105.457C41.6258 105.199 41.8294 104.917 41.9519 104.611C42.0763 104.305 42.1093 103.997 42.0509 103.683C41.9934 103.369 41.8322 103.068 41.5674 102.779L40.7888 101.927L37.867 104.599L38.6464 105.451C38.9141 105.744 39.2035 105.93 39.5155 106.011C39.8274 106.092 40.1404 106.083 40.457 105.984C40.7719 105.885 41.0678 105.709 41.343 105.457Z" fill="#404040"/>
<path d="M44.0142 110.525L43.7399 110.842L41.2969 108.741L44.4252 105.104L46.822 107.166L46.5496 107.484L44.5109 105.73L43.3818 107.041L45.1603 108.571L44.9002 108.872L43.1235 107.343L41.9284 108.732L44.0142 110.525Z" fill="#404040"/>
<path d="M49.7619 110.342C49.7497 110.24 49.7233 110.139 49.6828 110.038C49.6441 109.938 49.5895 109.837 49.5225 109.736C49.4537 109.635 49.3764 109.537 49.285 109.443C49.1936 109.348 49.089 109.26 48.9702 109.179C48.6243 108.941 48.3246 108.834 48.0729 108.856C47.8213 108.877 47.6186 109.002 47.4631 109.228C47.3575 109.383 47.3113 109.531 47.3264 109.673C47.3415 109.814 47.4122 109.969 47.5385 110.137C47.6629 110.304 47.8326 110.504 48.0446 110.736C48.2869 110.989 48.482 111.225 48.6309 111.447C48.7798 111.669 48.8618 111.887 48.8788 112.103C48.8958 112.318 48.8222 112.545 48.6592 112.781C48.5357 112.964 48.3924 113.097 48.2303 113.183C48.0682 113.268 47.8938 113.313 47.7063 113.315C47.5187 113.318 47.3236 113.281 47.1191 113.204C46.9145 113.127 46.7091 113.018 46.5008 112.876C46.2962 112.736 46.1153 112.581 45.956 112.409C45.7976 112.238 45.6629 112.054 45.5535 111.856C45.4423 111.658 45.3594 111.444 45.3047 111.215L45.7166 111.03C45.7364 111.153 45.7731 111.28 45.8278 111.413C45.8815 111.546 45.9513 111.678 46.0361 111.814C46.1209 111.948 46.2246 112.077 46.3452 112.201C46.465 112.323 46.5997 112.436 46.7487 112.538C47.0644 112.753 47.35 112.864 47.6064 112.87C47.8608 112.876 48.0654 112.765 48.2209 112.538C48.3321 112.375 48.3774 112.214 48.3547 112.055C48.3331 111.895 48.2548 111.723 48.1191 111.538C47.9834 111.352 47.8062 111.141 47.5856 110.904C47.3547 110.653 47.17 110.424 47.0333 110.217C46.8966 110.008 46.8259 109.808 46.8175 109.615C46.8109 109.423 46.8787 109.22 47.0239 109.008C47.1916 108.763 47.3933 108.598 47.6299 108.511C47.8665 108.425 48.1191 108.411 48.3906 108.468C48.6629 108.525 48.9363 108.648 49.2115 108.836C49.3868 108.956 49.5376 109.085 49.6639 109.222C49.7902 109.362 49.8948 109.508 49.9768 109.661C50.0598 109.816 50.1229 109.983 50.1654 110.159L49.7619 110.342Z" fill="#404040"/>
<path d="M49.4727 114.698L51.8441 110.528L52.2541 110.763L49.8836 114.932L49.4727 114.698Z" fill="#404040"/>
<path d="M53.5121 116.803C53.2209 116.673 52.9767 116.489 52.7816 116.252C52.5875 116.014 52.4442 115.747 52.3547 115.45C52.2651 115.154 52.2293 114.853 52.2463 114.544C52.2623 114.236 52.333 113.941 52.4583 113.661C52.5903 113.365 52.7656 113.107 52.9852 112.887C53.2039 112.667 53.4508 112.495 53.7223 112.369C53.9956 112.244 54.2822 112.178 54.5819 112.168C54.8826 112.159 55.1785 112.22 55.4698 112.35C55.9024 112.544 56.2144 112.789 56.4066 113.086C56.5989 113.384 56.7016 113.707 56.7158 114.053L56.2822 114.126C56.2643 113.792 56.1672 113.51 55.9891 113.277C55.8109 113.045 55.5781 112.864 55.2907 112.736C55.0475 112.627 54.8062 112.581 54.5649 112.597C54.3236 112.613 54.0936 112.676 53.8769 112.786C53.6601 112.897 53.4678 113.045 53.2981 113.23C53.1285 113.416 52.9918 113.627 52.8872 113.86C52.7769 114.108 52.7138 114.359 52.6977 114.616C52.6817 114.874 52.7119 115.12 52.7892 115.36C52.8636 115.597 52.9796 115.809 53.137 115.995C53.2925 116.181 53.4867 116.325 53.7166 116.429C53.9843 116.547 54.2671 116.594 54.5649 116.566C54.8628 116.54 55.1832 116.434 55.5263 116.252L55.3227 116.709C54.6837 117.025 54.0795 117.056 53.5121 116.803ZM55.745 115.58L54.7704 115.145L54.9193 114.812L56.2577 115.409L55.2963 117.563L54.9334 117.4L55.745 115.58Z" fill="#404040"/>
<path d="M58.7879 114.68L57.639 118.433L57.1875 118.294L58.5909 113.707L58.9651 113.822L60.805 118.568L61.9737 114.749L62.4261 114.888L61.0246 119.469L60.6042 119.34L58.7879 114.68Z" fill="#404040"/>
<path d="M66.4453 120.097L66.3737 120.511L63.1992 119.955L64.0258 115.229L67.1409 115.774L67.0683 116.187L64.4198 115.723L64.121 117.427L66.4312 117.832L66.3624 118.225L64.0532 117.82L63.7365 119.624L66.4453 120.097Z" fill="#404040"/>
<path d="M68.2773 120.723L68.5554 115.934L70.579 116.052C70.7854 116.064 70.9721 116.117 71.1379 116.213C71.3038 116.309 71.4471 116.433 71.5659 116.586C71.6865 116.74 71.7751 116.908 71.8354 117.089C71.8939 117.271 71.9184 117.454 71.908 117.639C71.8948 117.868 71.8382 118.081 71.7393 118.279C71.6394 118.475 71.5055 118.639 71.3378 118.769C71.17 118.899 70.9777 118.98 70.7581 119.012L71.8241 120.929L71.2916 120.898L70.268 119.065L68.8513 118.983L68.7486 120.75L68.2773 120.723ZM68.8759 118.565L70.4405 118.656C70.6299 118.667 70.7967 118.625 70.9428 118.529C71.088 118.435 71.2039 118.305 71.2897 118.14C71.3764 117.976 71.4245 117.8 71.4358 117.61C71.4471 117.418 71.4141 117.236 71.3359 117.067C71.2567 116.897 71.1483 116.758 71.0079 116.649C70.8684 116.539 70.7081 116.478 70.5272 116.468L69.0031 116.38L68.8759 118.565Z" fill="#404040"/>
<path d="M99.6807 110.482C99.8183 110.676 99.8927 110.884 99.9021 111.108C99.9116 111.33 99.8644 111.544 99.7589 111.749C99.6524 111.955 99.5016 112.127 99.3036 112.269L97.4619 113.585L94.6758 109.679L96.5561 108.336C96.7399 108.205 96.9322 108.14 97.1358 108.144C97.3394 108.145 97.5307 108.197 97.7108 108.298C97.8917 108.399 98.0406 108.533 98.1575 108.697C98.2961 108.892 98.3743 109.106 98.3931 109.341C98.412 109.578 98.362 109.798 98.2433 110.004C98.5147 109.911 98.7796 109.908 99.0378 109.994C99.2952 110.082 99.5091 110.244 99.6807 110.482ZM95.2997 109.739L96.328 111.181L97.6693 110.223C97.7975 110.131 97.8879 110.016 97.9388 109.878C97.9897 109.74 98.0039 109.595 97.9841 109.442C97.9643 109.29 97.9096 109.153 97.8201 109.027C97.7268 108.896 97.6137 108.795 97.4808 108.727C97.3498 108.659 97.2121 108.624 97.0698 108.625C96.9266 108.629 96.7955 108.672 96.674 108.759L95.2997 109.739ZM99.248 110.691C99.1538 110.558 99.0378 110.458 98.8993 110.387C98.7607 110.318 98.6156 110.284 98.4657 110.286C98.314 110.289 98.1764 110.336 98.0472 110.426L96.5514 111.494L97.6061 112.974L99.0642 111.934C99.1971 111.84 99.2904 111.72 99.347 111.574C99.4035 111.429 99.4243 111.277 99.4083 111.119C99.3932 110.962 99.3395 110.819 99.248 110.691Z" fill="#404040"/>
<path d="M101.88 110.265L98.6484 106.719L100.148 105.355C100.302 105.215 100.469 105.119 100.653 105.066C100.837 105.014 101.027 105 101.22 105.021C101.414 105.044 101.597 105.096 101.767 105.181C101.939 105.265 102.087 105.375 102.211 105.512C102.366 105.683 102.479 105.871 102.551 106.08C102.622 106.29 102.646 106.499 102.622 106.71C102.598 106.921 102.52 107.116 102.391 107.295L104.507 107.871L104.112 108.231L102.086 107.683L101.037 108.638L102.23 109.947L101.88 110.265ZM100.756 108.328L101.914 107.273C102.054 107.145 102.141 106.996 102.174 106.825C102.207 106.655 102.196 106.481 102.139 106.306C102.081 106.128 101.989 105.971 101.862 105.831C101.731 105.687 101.578 105.585 101.403 105.522C101.227 105.46 101.051 105.44 100.875 105.464C100.698 105.488 100.543 105.561 100.41 105.683L99.2809 106.71L100.756 108.328Z" fill="#404040"/>
<path d="M103.164 102.237L103.424 101.935L108.357 103.562L108.03 103.94L106.503 103.414L105.071 105.073L105.814 106.508L105.483 106.891L103.164 102.237ZM106.126 103.283L103.711 102.451L104.887 104.719L106.126 103.283Z" fill="#404040"/>
<path d="M106.392 99.5949L109.667 101.759L109.407 102.154L105.406 99.5092L105.621 99.1821L110.694 98.7608L107.363 96.559L107.623 96.165L111.619 98.806L111.378 99.1727L106.392 99.5949Z" fill="#404040"/>
<path d="M112.721 96.8455L108.41 94.7455L109.124 93.2808C109.346 92.8237 109.628 92.4881 109.97 92.2761C110.311 92.0649 110.682 91.9613 111.083 91.966C111.484 91.9726 111.882 92.0706 112.279 92.2638C112.717 92.4768 113.057 92.7473 113.298 93.0716C113.54 93.3996 113.675 93.7596 113.703 94.1564C113.73 94.5532 113.64 94.9614 113.435 95.3827L112.721 96.8455ZM112.072 92.6889C111.728 92.5211 111.391 92.4363 111.062 92.4335C110.733 92.4306 110.433 92.5145 110.163 92.6823C109.893 92.852 109.671 93.1121 109.5 93.4637L108.993 94.5033L112.552 96.2376L113.059 95.1989C113.232 94.8426 113.299 94.5042 113.26 94.1857C113.22 93.8652 113.096 93.5777 112.889 93.3204C112.681 93.064 112.408 92.8529 112.072 92.6889Z" fill="#404040"/>
<path d="M116.736 86.6249L112.051 85.5956L112.4 84.0055C112.509 83.5079 112.705 83.1167 112.988 82.8311C113.269 82.5446 113.605 82.357 113.995 82.2665C114.387 82.1779 114.798 82.1808 115.229 82.275C115.704 82.3787 116.097 82.5616 116.41 82.8208C116.721 83.0809 116.937 83.4004 117.057 83.7803C117.177 84.1582 117.186 84.5767 117.086 85.0348L116.736 86.6249ZM115.127 82.7359C114.754 82.6539 114.406 82.652 114.086 82.7256C113.764 82.801 113.493 82.9518 113.27 83.1789C113.047 83.4061 112.893 83.7124 112.809 84.0941L112.562 85.2233L116.43 86.0725L116.676 84.9443C116.762 84.5569 116.747 84.2129 116.633 83.9113C116.519 83.6097 116.332 83.358 116.069 83.1591C115.806 82.9574 115.493 82.817 115.127 82.7359Z" fill="#404040"/>
<path d="M117.737 77.6072L118.153 77.6467L117.844 80.8542L113.07 80.3942L113.374 77.248L113.79 77.2876L113.532 79.9645L115.253 80.1303L115.478 77.7957L115.875 77.8352L115.651 80.168L117.473 80.3452L117.737 77.6072Z" fill="#404040"/>
<path d="M114.273 73.0151C114.197 73.0839 114.13 73.1649 114.069 73.2545C114.009 73.345 113.959 73.4477 113.915 73.5617C113.872 73.6739 113.838 73.7955 113.813 73.9246C113.788 74.0538 113.776 74.1895 113.779 74.3337C113.785 74.7522 113.87 75.0585 114.032 75.2527C114.195 75.4449 114.413 75.5401 114.688 75.5364C114.876 75.5335 115.024 75.4845 115.131 75.3903C115.237 75.2979 115.323 75.1509 115.386 74.9511C115.451 74.7522 115.517 74.4996 115.585 74.1914C115.651 73.8483 115.732 73.5514 115.828 73.3025C115.922 73.0537 116.054 72.8605 116.22 72.7219C116.387 72.5853 116.614 72.5146 116.902 72.5089C117.122 72.5061 117.315 72.5457 117.478 72.6296C117.64 72.7125 117.777 72.8303 117.888 72.9811C117.998 73.1329 118.08 73.3139 118.135 73.524C118.19 73.7371 118.218 73.967 118.223 74.2187C118.227 74.4675 118.203 74.706 118.156 74.9331C118.107 75.1622 118.034 75.379 117.936 75.5826C117.838 75.7861 117.711 75.9775 117.556 76.1556L117.168 75.9247C117.256 75.837 117.339 75.7343 117.415 75.6127C117.493 75.493 117.562 75.3592 117.623 75.2112C117.683 75.0642 117.73 74.9058 117.76 74.7362C117.792 74.5665 117.807 74.3921 117.804 74.213C117.798 73.8294 117.725 73.5325 117.581 73.3205C117.439 73.1093 117.231 73.0047 116.956 73.0094C116.759 73.0122 116.6 73.0688 116.483 73.1772C116.365 73.2884 116.271 73.4505 116.198 73.6692C116.124 73.886 116.054 74.1537 115.987 74.4694C115.915 74.804 115.834 75.0868 115.743 75.3177C115.652 75.5486 115.53 75.723 115.376 75.8389C115.223 75.9567 115.018 76.018 114.762 76.0218C114.464 76.0256 114.213 75.9567 114.006 75.8135C113.8 75.6693 113.641 75.4713 113.531 75.2159C113.422 74.9605 113.364 74.6664 113.36 74.3337C113.357 74.1216 113.376 73.9246 113.415 73.7408C113.455 73.558 113.515 73.3883 113.592 73.2319C113.672 73.0754 113.772 72.9284 113.89 72.7917L114.273 73.0151Z" fill="#404040"/>
<path d="M118.004 70.7574L113.229 71.2249L113.184 70.7546L117.958 70.2871L118.004 70.7574Z" fill="#404040"/>
<path d="M117.393 66.2562C117.453 66.5701 117.44 66.8754 117.357 67.1714C117.273 67.4674 117.135 67.736 116.944 67.9782C116.751 68.2214 116.524 68.424 116.262 68.5861C115.999 68.7492 115.716 68.8585 115.417 68.916C115.098 68.9773 114.786 68.9801 114.479 68.9255C114.173 68.8717 113.892 68.769 113.632 68.6154C113.375 68.4636 113.156 68.2666 112.977 68.0253C112.798 67.785 112.68 67.5069 112.62 67.1921C112.53 66.7284 112.554 66.3325 112.688 66.0045C112.823 65.6746 113.029 65.4079 113.304 65.1987L113.613 65.5106C113.35 65.718 113.173 65.9593 113.084 66.2373C112.994 66.5154 112.979 66.8095 113.039 67.1205C113.089 67.3806 113.189 67.605 113.339 67.7944C113.49 67.9839 113.672 68.1356 113.887 68.2506C114.101 68.3665 114.334 68.4401 114.583 68.4721C114.832 68.506 115.082 68.4985 115.335 68.4495C115.6 68.3986 115.843 68.3081 116.062 68.1743C116.283 68.0404 116.469 67.8745 116.62 67.6757C116.773 67.4768 116.881 67.2609 116.945 67.0253C117.008 66.7916 117.015 66.5503 116.968 66.3033C116.913 66.0149 116.79 65.7566 116.597 65.5276C116.404 65.2986 116.136 65.095 115.789 64.9178L116.281 64.8245C116.905 65.1694 117.276 65.6454 117.393 66.2562ZM115.113 65.1223L115.313 66.1714L114.955 66.2392L114.681 64.7981L116.996 64.3579L117.071 64.75L115.113 65.1223Z" fill="#404040"/>
<path d="M112.608 63.1605L116.336 61.9333L116.484 62.3829L111.928 63.8825L111.806 63.5102L114.62 59.2688L110.828 60.5176L110.68 60.068L115.229 58.5713L115.367 58.9879L112.608 63.1605Z" fill="#404040"/>
<path d="M112.618 53.7689L112.996 53.5898L114.371 56.5042L110.032 58.5514L108.684 55.6917L109.062 55.5126L110.21 57.9444L111.774 57.2073L110.774 55.0857L111.134 54.9169L112.135 57.0367L113.79 56.2553L112.618 53.7689Z" fill="#404040"/>
<path d="M112.079 51.9252L108.004 54.456L106.935 52.7339C106.826 52.5577 106.762 52.3739 106.744 52.1835C106.727 51.9931 106.746 51.8046 106.804 51.618C106.86 51.4323 106.946 51.2617 107.06 51.109C107.175 50.9563 107.31 50.831 107.466 50.7339C107.662 50.6123 107.87 50.5359 108.086 50.5039C108.305 50.4718 108.516 50.4869 108.72 50.5482C108.922 50.6104 109.101 50.7207 109.253 50.8809L110.205 48.9072L110.486 49.3615L109.578 51.2523L110.326 52.4578L111.83 51.5237L112.079 51.9252ZM109.971 52.6793L109.143 51.3475C109.044 51.1863 108.913 51.0732 108.752 51.01C108.59 50.9459 108.416 50.9261 108.233 50.9497C108.049 50.9733 107.877 51.0345 107.717 51.1354C107.552 51.2372 107.423 51.3691 107.33 51.5303C107.236 51.6924 107.185 51.8612 107.176 52.0402C107.167 52.2174 107.21 52.3833 107.306 52.536L108.111 53.8329L109.971 52.6793Z" fill="#404040"/>
<path d="M32.0573 56.8537C31.7971 56.7199 31.5634 56.5446 31.3598 56.3259C31.1543 56.1082 30.9941 55.8603 30.8753 55.5813C30.7566 55.3032 30.701 55.0063 30.7076 54.6925C30.7151 54.3767 30.7999 54.0591 30.9639 53.7386C31.1581 53.3569 31.4126 53.0751 31.7255 52.8941C32.0384 52.7131 32.3636 52.6274 32.702 52.6387L32.7378 53.0741C32.5021 53.0694 32.2929 53.11 32.111 53.1948C31.9291 53.2768 31.7726 53.3861 31.6444 53.5209C31.5144 53.6538 31.4107 53.799 31.3306 53.9564C31.1996 54.2118 31.1355 54.4653 31.1364 54.7132C31.1383 54.963 31.1901 55.1977 31.2919 55.4192C31.3937 55.6416 31.5332 55.8396 31.7085 56.0149C31.8838 56.1911 32.0799 56.3344 32.2967 56.4447C32.5333 56.5663 32.7802 56.6417 33.0375 56.6728C33.2958 56.7029 33.5446 56.6888 33.784 56.6294C34.0253 56.5691 34.244 56.4682 34.4419 56.324C34.6398 56.1789 34.7963 55.9922 34.9132 55.7641C34.9961 55.6039 35.0508 55.4258 35.0809 55.2278C35.1111 55.0309 35.1054 54.8291 35.064 54.6237C35.0225 54.4173 34.932 54.224 34.7925 54.0412L35.1507 53.7848C35.3184 53.9818 35.4297 54.209 35.4843 54.47C35.5371 54.7302 35.5447 54.9932 35.5051 55.2589C35.4655 55.5247 35.3901 55.7651 35.2798 55.9819C35.1299 56.275 34.9301 56.5106 34.6785 56.6916C34.4268 56.8707 34.1497 56.997 33.8481 57.0667C33.5465 57.1384 33.2392 57.1544 32.9282 57.1158C32.6153 57.0781 32.3249 56.9904 32.0573 56.8537Z" fill="#404040"/>
<path d="M33.6953 49.1932L33.9187 48.8633L39.0075 49.9086L38.7266 50.3223L37.1488 49.9764L35.9169 51.7908L36.8208 53.1273L36.5361 53.5477L33.6953 49.1932ZM36.7567 49.8897L34.2627 49.3411L35.6935 51.4581L36.7567 49.8897Z" fill="#404040"/>
<path d="M42.5988 45.7979L39.7052 43.1767L40.7872 46.5001L40.5874 46.7197L37.1698 45.976L40.0643 48.5972L39.7467 48.9479L36.1914 45.7281L36.5175 45.3671L40.2085 46.1843L39.0398 42.5838L39.3612 42.2275L42.9174 45.4473L42.5988 45.7979Z" fill="#404040"/>
<path d="M44.2244 44.3054L41.0273 40.7294L41.3799 40.4146L44.5769 43.9896L44.2244 44.3054Z" fill="#404040"/>
<path d="M45.9239 42.8213L43.0312 38.9936L43.4092 38.709L46.0483 42.202L48.2576 40.5319L48.5102 40.8665L45.9239 42.8213Z" fill="#404040"/>
<path d="M49.5823 40.1819L47.1289 36.0601L47.5351 35.8188L49.7746 39.5805L52.1555 38.162L52.3694 38.523L49.5823 40.1819Z" fill="#404040"/>
<path d="M56.2271 36.257L56.4005 36.6396L53.4673 37.9743L51.4805 33.6075L54.359 32.2974L54.5324 32.6791L52.0837 33.7922L52.8 35.3663L54.9339 34.3964L55.0998 34.7583L52.9659 35.7301L53.7237 37.3965L56.2271 36.257Z" fill="#404040"/>
<path d="M61.8284 34.9333C61.5193 35.0134 61.2139 35.021 60.9142 34.9569C60.6125 34.8909 60.3354 34.7703 60.0809 34.5949C59.8265 34.4177 59.6097 34.2047 59.4306 33.9521C59.2534 33.7005 59.1252 33.4252 59.0498 33.1302C58.9688 32.8154 58.9461 32.5044 58.9801 32.1952C59.0149 31.8861 59.1007 31.5986 59.2364 31.3309C59.3722 31.0623 59.555 30.8323 59.784 30.6391C60.0131 30.4449 60.2827 30.3092 60.5918 30.2291C61.0499 30.1113 61.4476 30.1103 61.7832 30.2234C62.1197 30.3365 62.4015 30.525 62.6258 30.788L62.3336 31.1141C62.1112 30.8644 61.8586 30.7032 61.5758 30.6325C61.2912 30.5609 60.9971 30.5656 60.6917 30.6438C60.4344 30.7088 60.2167 30.8238 60.0366 30.985C59.8585 31.1471 59.7171 31.3394 59.6163 31.5609C59.5154 31.7824 59.4551 32.019 59.4381 32.2697C59.4212 32.5204 59.4457 32.7702 59.5098 33.0181C59.5767 33.2801 59.6832 33.5167 59.8302 33.7278C59.9782 33.9389 60.1554 34.1133 60.3637 34.2537C60.5711 34.3923 60.7935 34.4875 61.032 34.5356C61.2704 34.5836 61.5117 34.5761 61.7549 34.5129C62.0395 34.4404 62.2884 34.3009 62.5052 34.0945C62.7219 33.8871 62.9086 33.6053 63.0631 33.2499L63.1876 33.7353C62.8841 34.38 62.4307 34.7797 61.8284 34.9333ZM62.8162 32.5883L61.7832 32.8531L61.6917 32.5006L63.1121 32.1349L63.6984 34.4187L63.312 34.5177L62.8162 32.5883Z" fill="#404040"/>
<path d="M65.194 34.1684L64.5625 29.4133L65.0319 29.3521L65.6068 33.6915L68.3534 33.3267L68.4081 33.7424L65.194 34.1684Z" fill="#404040"/>
<path d="M71.0455 28.8445L71.4451 28.8379L73.5112 33.6034L73.0116 33.6109L72.3886 32.1208L70.1963 32.1547L69.6204 33.6637L69.1133 33.6712L71.0455 28.8445ZM72.235 31.7522L71.251 29.3959L70.3386 31.7805L72.235 31.7522Z" fill="#404040"/>
<path d="M74.6797 31.232C74.7117 30.9417 74.7928 30.6617 74.9247 30.3931C75.0557 30.1245 75.2301 29.8851 75.4488 29.6758C75.6656 29.4666 75.9238 29.3092 76.2217 29.2036C76.5176 29.0971 76.8456 29.0641 77.2038 29.1046C77.6298 29.1518 77.9823 29.2884 78.2632 29.5165C78.5441 29.7437 78.7392 30.0189 78.8495 30.3384L78.4536 30.526C78.3744 30.3045 78.2632 30.1226 78.1199 29.984C77.9767 29.8427 77.8193 29.7352 77.6487 29.6626C77.4771 29.5901 77.3056 29.5429 77.1303 29.5241C76.8437 29.492 76.5836 29.5213 76.3527 29.6127C76.1199 29.7022 75.9201 29.8342 75.7485 30.0076C75.577 30.182 75.4412 30.3818 75.3394 30.608C75.2377 30.8352 75.1736 31.0689 75.1462 31.3111C75.117 31.575 75.134 31.8333 75.1962 32.084C75.2603 32.3366 75.3621 32.5647 75.5034 32.7683C75.6429 32.971 75.8164 33.1387 76.0218 33.2735C76.2264 33.4064 76.4573 33.4875 76.7118 33.5157C76.8909 33.5355 77.0775 33.5233 77.2735 33.4828C77.4677 33.4403 77.6543 33.363 77.8315 33.2509C78.0087 33.1397 78.1595 32.986 78.2802 32.7909L78.6478 33.035C78.5233 33.2622 78.348 33.446 78.1237 33.5902C77.8994 33.7325 77.6562 33.8324 77.3942 33.889C77.1322 33.9465 76.8796 33.9616 76.6383 33.9361C76.3121 33.9003 76.02 33.7957 75.7617 33.6251C75.5044 33.4545 75.2886 33.2405 75.1151 32.9832C74.9417 32.7259 74.8173 32.446 74.7419 32.1396C74.6674 31.8352 74.6457 31.5336 74.6797 31.232ZM76.4347 35.102C76.3235 35.0907 76.2009 35.0615 76.0671 35.0153C75.9351 34.9691 75.8088 34.9079 75.6901 34.8296L75.8541 34.5836C75.9427 34.6383 76.0275 34.6845 76.1104 34.7203C76.1924 34.7571 76.2876 34.7797 76.3951 34.7919C76.5421 34.8089 76.659 34.7929 76.7457 34.7458C76.8324 34.6986 76.8833 34.6176 76.8965 34.5016C76.9078 34.3838 76.8796 34.2783 76.8079 34.1821C76.7382 34.086 76.6307 33.987 76.4875 33.8862L76.6967 33.7778C76.8588 33.905 76.9889 34.0323 77.0831 34.1576C77.1774 34.2839 77.2151 34.4347 77.1962 34.6091C77.1774 34.7882 77.0982 34.9211 76.9625 35.0078C76.8258 35.0945 76.6496 35.1265 76.4347 35.102Z" fill="#404040"/>
<path d="M81.7349 34.8508C81.4069 34.7707 81.126 34.6321 80.8904 34.4361C80.6567 34.2391 80.47 34.0044 80.3324 33.733C80.1948 33.4596 80.1081 33.1684 80.0723 32.8611C80.0365 32.5538 80.0553 32.2513 80.1288 31.9525C80.2042 31.6424 80.3324 31.3596 80.5106 31.1052C80.6887 30.8488 80.9036 30.6358 81.1581 30.4633C81.4107 30.2908 81.6869 30.173 81.9856 30.1089C82.2835 30.0457 82.5889 30.0523 82.898 30.1277C83.226 30.2079 83.5069 30.3492 83.7406 30.55C83.9753 30.7508 84.1591 30.9892 84.2939 31.2626C84.4287 31.5368 84.5135 31.8271 84.5503 32.1325C84.587 32.4379 84.5691 32.7376 84.4966 33.0308C84.4212 33.3409 84.293 33.6246 84.1158 33.8791C83.9367 34.1345 83.7218 34.3494 83.4711 34.5219C83.2204 34.6943 82.9451 34.8122 82.6473 34.8734C82.3495 34.9347 82.046 34.9272 81.7349 34.8508ZM80.5869 32.0656C80.5266 32.3201 80.5077 32.5727 80.5322 32.8281C80.5586 33.0826 80.6265 33.3192 80.7349 33.5388C80.8433 33.7575 80.9903 33.946 81.1769 34.1053C81.3636 34.2655 81.5822 34.3748 81.8367 34.438C82.1025 34.503 82.357 34.5068 82.5964 34.4465C82.8358 34.3861 83.0526 34.2825 83.2496 34.1335C83.4466 33.9846 83.6125 33.8036 83.7482 33.5916C83.8839 33.3786 83.98 33.1514 84.0404 32.912C84.1026 32.6585 84.1195 32.4049 84.0932 32.1523C84.0668 31.9007 83.9989 31.6641 83.8877 31.4416C83.7783 31.2192 83.6304 31.0307 83.4466 30.8742C83.2618 30.7178 83.0432 30.6084 82.7887 30.5472C82.5267 30.4821 82.2759 30.4784 82.0375 30.5368C81.7981 30.5934 81.5803 30.697 81.3843 30.845C81.1883 30.9949 81.0205 31.174 80.8829 31.3879C80.7453 31.599 80.6472 31.8253 80.5869 32.0656Z" fill="#404040"/>
<path d="M87.141 32.3165L85.697 35.967L85.2578 35.7936L87.0213 31.3325L87.3861 31.4777L88.8432 36.3544L90.3117 32.6398L90.7509 32.8142L88.9903 37.2686L88.5812 37.1075L87.141 32.3165Z" fill="#404040"/>
<path d="M72.6525 88.3771C70.3143 88.3771 68.2903 87.8617 66.5806 86.8309C64.8961 85.7749 63.5887 84.2915 62.6584 82.3806C61.7532 80.4698 61.3007 78.1944 61.3007 75.5544C61.3007 72.9145 61.7658 70.6391 62.6961 68.7282C63.6264 66.8174 64.9338 65.3466 66.6183 64.3157C68.3029 63.2597 70.264 62.7317 72.5017 62.7317C75.0914 62.7317 77.1782 63.2723 78.7622 64.3534C80.3462 65.4094 81.4901 67.006 82.1941 69.1431L81.2136 69.6334C80.6102 67.6471 79.5919 66.1637 78.1588 65.1831C76.7256 64.1774 74.8399 63.6746 72.5017 63.6746C70.4903 63.6746 68.7177 64.1649 67.184 65.1454C65.6755 66.1008 64.4938 67.4711 63.6389 69.2562C62.8092 71.0162 62.3944 73.1156 62.3944 75.5544C62.3944 77.9933 62.8092 80.1052 63.6389 81.8904C64.4686 83.6503 65.6503 85.0206 67.184 86.0012C68.7177 86.9566 70.5406 87.4343 72.6525 87.4343C74.2868 87.4343 75.6571 87.1577 76.7633 86.6046C77.8948 86.0515 78.7873 85.3349 79.441 84.4549C80.1199 83.5749 80.6102 82.6446 80.9119 81.6641C81.2136 80.6835 81.3644 79.7532 81.3644 78.8733V77.063H72.5017V76.1201H82.3827V88H81.4399L81.4021 82.0412L81.553 82.1166C80.9999 84.0275 79.9564 85.5486 78.4228 86.68C76.8891 87.8114 74.9657 88.3771 72.6525 88.3771Z" fill="#262626"/>
</svg>
