<svg width="30" height="30" viewBox="0 0 30 30" fill="none" xmlns="http://www.w3.org/2000/svg">
<path fill-rule="evenodd" clip-rule="evenodd" d="M10.0513 10.0503C10.2388 9.86272 10.4932 9.75736 10.7584 9.75736C11.0236 9.75736 11.278 9.86272 11.4655 10.0503L15.0011 13.5858L18.5366 10.0503C18.7241 9.86272 18.9785 9.75736 19.2437 9.75736C19.5089 9.75736 19.7633 9.86272 19.9508 10.0503C20.1383 10.2378 20.2437 10.4921 20.2437 10.7574C20.2437 11.0226 20.1383 11.2769 19.9508 11.4645L16.4153 15L19.9508 18.5355C20.1383 18.7231 20.2437 18.9774 20.2437 19.2426C20.2437 19.5079 20.1383 19.7622 19.9508 19.9497C19.7633 20.1373 19.5089 20.2426 19.2437 20.2426C18.9785 20.2426 18.7241 20.1373 18.5366 19.9497L15.0011 16.4142L11.4655 19.9497C11.278 20.1373 11.0236 20.2426 10.7584 20.2426C10.4932 20.2426 10.2388 20.1373 10.0513 19.9497C9.86377 19.7622 9.75842 19.5079 9.75842 19.2426C9.75842 18.9774 9.86377 18.7231 10.0513 18.5355L13.5868 15L10.0513 11.4645C9.86377 11.2769 9.75842 11.0226 9.75842 10.7574C9.75842 10.4921 9.86377 10.2378 10.0513 10.0503Z" fill="#262626"/>
</svg>
